<svg width="273" height="187" viewBox="0 0 273 187" fill="none" xmlns="http://www.w3.org/2000/svg">
<path d="M228.5 93.5C228.5 136.964 188.654 174.5 136.5 174.5C84.3461 174.5 44.5 136.964 44.5 93.5C44.5 50.0361 84.3461 12.5 136.5 12.5C188.654 12.5 228.5 50.0361 228.5 93.5Z" stroke="#73380E" stroke-width="25"/>
<circle cx="42.5" cy="42.5" r="42.5" fill="#73380E"/>
<circle cx="230.5" cy="42.5" r="42.5" fill="#73380E"/>
<path d="M117.826 85C116.159 85 114.659 84.5833 113.326 83.75C111.993 82.8833 110.943 81.7167 110.176 80.25C109.409 78.7833 109.026 77.1333 109.026 75.3V51.45C109.026 50.7167 109.259 50.1167 109.726 49.65C110.193 49.1833 110.793 48.95 111.526 48.95C112.259 48.95 112.859 49.1833 113.326 49.65C113.793 50.1167 114.026 50.7167 114.026 51.45V75.3C114.026 76.6333 114.393 77.75 115.126 78.65C115.859 79.55 116.759 80 117.826 80H119.526C120.126 80 120.626 80.2333 121.026 80.7C121.459 81.1667 121.676 81.7667 121.676 82.5C121.676 83.2333 121.393 83.8333 120.826 84.3C120.293 84.7667 119.593 85 118.726 85H117.826ZM106.726 62.95C106.026 62.95 105.459 62.75 105.026 62.35C104.593 61.95 104.376 61.45 104.376 60.85C104.376 60.1833 104.593 59.65 105.026 59.25C105.459 58.85 106.026 58.65 106.726 58.65H118.276C118.976 58.65 119.543 58.85 119.976 59.25C120.409 59.65 120.626 60.1833 120.626 60.85C120.626 61.45 120.409 61.95 119.976 62.35C119.543 62.75 118.976 62.95 118.276 62.95H106.726ZM136.344 85.2C133.644 85.2 131.261 84.6167 129.194 83.45C127.128 82.25 125.494 80.6167 124.294 78.55C123.128 76.45 122.544 74.05 122.544 71.35C122.544 68.6167 123.128 66.2167 124.294 64.15C125.494 62.05 127.128 60.4167 129.194 59.25C131.261 58.05 133.644 57.45 136.344 57.45C139.011 57.45 141.378 58.05 143.444 59.25C145.511 60.4167 147.128 62.05 148.294 64.15C149.494 66.2167 150.094 68.6167 150.094 71.35C150.094 74.05 149.511 76.45 148.344 78.55C147.178 80.6167 145.561 82.25 143.494 83.45C141.428 84.6167 139.044 85.2 136.344 85.2ZM136.344 80.7C138.078 80.7 139.611 80.3 140.944 79.5C142.278 78.7 143.311 77.6 144.044 76.2C144.811 74.8 145.194 73.1833 145.194 71.35C145.194 69.5167 144.811 67.9 144.044 66.5C143.311 65.0667 142.278 63.95 140.944 63.15C139.611 62.35 138.078 61.95 136.344 61.95C134.611 61.95 133.078 62.35 131.744 63.15C130.411 63.95 129.361 65.0667 128.594 66.5C127.828 67.9 127.444 69.5167 127.444 71.35C127.444 73.1833 127.828 74.8 128.594 76.2C129.361 77.6 130.411 78.7 131.744 79.5C133.078 80.3 134.611 80.7 136.344 80.7ZM157.071 97C156.738 97 156.338 96.9 155.871 96.7C154.404 96.0333 154.004 94.9833 154.671 93.55L169.921 59.1C170.588 57.7 171.638 57.3 173.071 57.9C174.571 58.5333 174.988 59.5833 174.321 61.05L159.021 95.45C158.621 96.4833 157.971 97 157.071 97ZM162.971 83.9C162.338 84.1667 161.738 84.2 161.171 84C160.638 83.7667 160.204 83.3333 159.871 82.7L148.421 60.95C148.088 60.3167 148.038 59.7167 148.271 59.15C148.538 58.55 148.988 58.1167 149.621 57.85C150.254 57.5833 150.854 57.5667 151.421 57.8C151.988 58 152.421 58.4167 152.721 59.05L163.671 80.8C164.004 81.4333 164.121 82.05 164.021 82.65C163.954 83.2167 163.604 83.6333 162.971 83.9ZM79.0631 125.2C76.3964 125.2 74.0131 124.6 71.9131 123.4C69.8464 122.167 68.2131 120.517 67.0131 118.45C65.8464 116.35 65.2631 113.983 65.2631 111.35C65.2631 108.65 65.8464 106.25 67.0131 104.15C68.1798 102.05 69.7798 100.417 71.8131 99.25C73.8464 98.05 76.1798 97.45 78.8131 97.45C80.7798 97.45 82.5798 97.8333 84.2131 98.6C85.8464 99.3333 87.3131 100.45 88.6131 101.95C89.0798 102.483 89.2464 103.033 89.1131 103.6C88.9798 104.167 88.6131 104.667 88.0131 105.1C87.5464 105.433 87.0298 105.55 86.4631 105.45C85.8964 105.317 85.3798 105.017 84.9131 104.55C83.2798 102.817 81.2464 101.95 78.8131 101.95C77.1131 101.95 75.6131 102.35 74.3131 103.15C73.0131 103.917 71.9964 105 71.2631 106.4C70.5298 107.8 70.1631 109.45 70.1631 111.35C70.1631 113.15 70.5298 114.75 71.2631 116.15C72.0298 117.55 73.0798 118.667 74.4131 119.5C75.7464 120.3 77.2964 120.7 79.0631 120.7C80.2298 120.7 81.2464 120.567 82.1131 120.3C83.0131 120 83.8298 119.55 84.5631 118.95C85.0964 118.517 85.6464 118.283 86.2131 118.25C86.7798 118.183 87.2798 118.333 87.7131 118.7C88.2798 119.167 88.5964 119.7 88.6631 120.3C88.7298 120.867 88.5298 121.383 88.0631 121.85C85.6631 124.083 82.6631 125.2 79.0631 125.2ZM104.092 125.2C101.659 125.2 99.4757 124.6 97.5424 123.4C95.609 122.167 94.0757 120.517 92.9424 118.45C91.8424 116.35 91.2924 113.983 91.2924 111.35C91.2924 108.717 91.8924 106.35 93.0924 104.25C94.3257 102.15 95.9757 100.5 98.0424 99.3C100.142 98.0667 102.492 97.45 105.092 97.45C107.692 97.45 110.026 98.0667 112.092 99.3C114.159 100.5 115.792 102.15 116.992 104.25C118.226 106.35 118.842 108.717 118.842 111.35H116.892C116.892 113.983 116.326 116.35 115.192 118.45C114.092 120.517 112.576 122.167 110.642 123.4C108.709 124.6 106.526 125.2 104.092 125.2ZM105.092 120.7C106.792 120.7 108.309 120.3 109.642 119.5C110.976 118.667 112.026 117.55 112.792 116.15C113.559 114.717 113.942 113.117 113.942 111.35C113.942 109.55 113.559 107.95 112.792 106.55C112.026 105.117 110.976 104 109.642 103.2C108.309 102.367 106.792 101.95 105.092 101.95C103.426 101.95 101.909 102.367 100.542 103.2C99.2091 104 98.1424 105.117 97.3424 106.55C96.5757 107.95 96.1924 109.55 96.1924 111.35C96.1924 113.117 96.5757 114.717 97.3424 116.15C98.1424 117.55 99.2091 118.667 100.542 119.5C101.909 120.3 103.426 120.7 105.092 120.7ZM116.292 125.05C115.559 125.05 114.942 124.817 114.442 124.35C113.976 123.85 113.742 123.233 113.742 122.5V114.85L114.692 109.55L118.842 111.35V122.5C118.842 123.233 118.592 123.85 118.092 124.35C117.626 124.817 117.026 125.05 116.292 125.05ZM145.533 125.05C144.799 125.05 144.183 124.817 143.683 124.35C143.216 123.85 142.983 123.233 142.983 122.5V110.2C142.983 108.3 142.633 106.75 141.933 105.55C141.233 104.35 140.283 103.467 139.083 102.9C137.916 102.3 136.566 102 135.033 102C133.633 102 132.366 102.283 131.233 102.85C130.099 103.417 129.199 104.183 128.533 105.15C127.866 106.083 127.533 107.167 127.533 108.4H124.383C124.383 106.3 124.883 104.433 125.883 102.8C126.916 101.133 128.316 99.8167 130.083 98.85C131.849 97.8833 133.833 97.4 136.033 97.4C138.333 97.4 140.383 97.9 142.183 98.9C144.016 99.8667 145.449 101.3 146.483 103.2C147.549 105.1 148.083 107.433 148.083 110.2V122.5C148.083 123.233 147.833 123.85 147.333 124.35C146.866 124.817 146.266 125.05 145.533 125.05ZM124.983 125.05C124.249 125.05 123.633 124.817 123.133 124.35C122.666 123.85 122.433 123.233 122.433 122.5V100.2C122.433 99.4333 122.666 98.8167 123.133 98.35C123.633 97.8833 124.249 97.65 124.983 97.65C125.749 97.65 126.366 97.8833 126.833 98.35C127.299 98.8167 127.533 99.4333 127.533 100.2V122.5C127.533 123.233 127.299 123.85 126.833 124.35C126.366 124.817 125.749 125.05 124.983 125.05ZM164.915 125.2C162.215 125.2 159.831 124.617 157.765 123.45C155.698 122.25 154.065 120.617 152.865 118.55C151.698 116.45 151.115 114.05 151.115 111.35C151.115 108.617 151.698 106.217 152.865 104.15C154.065 102.05 155.698 100.417 157.765 99.25C159.831 98.05 162.215 97.45 164.915 97.45C167.581 97.45 169.948 98.05 172.015 99.25C174.081 100.417 175.698 102.05 176.865 104.15C178.065 106.217 178.665 108.617 178.665 111.35C178.665 114.05 178.081 116.45 176.915 118.55C175.748 120.617 174.131 122.25 172.065 123.45C169.998 124.617 167.615 125.2 164.915 125.2ZM164.915 120.7C166.648 120.7 168.181 120.3 169.515 119.5C170.848 118.7 171.881 117.6 172.615 116.2C173.381 114.8 173.765 113.183 173.765 111.35C173.765 109.517 173.381 107.9 172.615 106.5C171.881 105.067 170.848 103.95 169.515 103.15C168.181 102.35 166.648 101.95 164.915 101.95C163.181 101.95 161.648 102.35 160.315 103.15C158.981 103.95 157.931 105.067 157.165 106.5C156.398 107.9 156.015 109.517 156.015 111.35C156.015 113.183 156.398 114.8 157.165 116.2C157.931 117.6 158.981 118.7 160.315 119.5C161.648 120.3 163.181 120.7 164.915 120.7ZM205.355 125.05C204.622 125.05 204.005 124.817 203.505 124.35C203.038 123.85 202.805 123.233 202.805 122.5V110.2C202.805 108.3 202.455 106.75 201.755 105.55C201.055 104.35 200.105 103.467 198.905 102.9C197.738 102.3 196.388 102 194.855 102C193.455 102 192.188 102.283 191.055 102.85C189.922 103.417 189.022 104.183 188.355 105.15C187.688 106.083 187.355 107.167 187.355 108.4H184.205C184.205 106.3 184.705 104.433 185.705 102.8C186.738 101.133 188.138 99.8167 189.905 98.85C191.672 97.8833 193.655 97.4 195.855 97.4C198.155 97.4 200.205 97.9 202.005 98.9C203.838 99.8667 205.272 101.3 206.305 103.2C207.372 105.1 207.905 107.433 207.905 110.2V122.5C207.905 123.233 207.655 123.85 207.155 124.35C206.688 124.817 206.088 125.05 205.355 125.05ZM184.805 125.05C184.072 125.05 183.455 124.817 182.955 124.35C182.488 123.85 182.255 123.233 182.255 122.5V100.2C182.255 99.4333 182.488 98.8167 182.955 98.35C183.455 97.8833 184.072 97.65 184.805 97.65C185.572 97.65 186.188 97.8833 186.655 98.35C187.122 98.8167 187.355 99.4333 187.355 100.2V122.5C187.355 123.233 187.122 123.85 186.655 124.35C186.188 124.817 185.572 125.05 184.805 125.05Z" fill="#DC8A4F"/>
</svg>
